<svg width="512" height="512" viewBox="0 0 512 512" fill="none" xmlns="http://www.w3.org/2000/svg">
<rect width="512" height="512" fill="#F5F5F5"/>
<path d="M256.202 131.41C258.789 131.427 261.377 131.509 263.963 131.66C300.58 133.798 332.465 147.016 357.985 170.636C382.636 193.453 396.487 220.172 400.207 252.079C403.49 280.249 396.84 305.276 375.117 346.488C348.062 397.814 309.059 446.296 269.112 488.308C264.59 493.064 260.829 495.516 257.036 495.933H257.354C256.895 495.983 256.439 496.005 255.985 495.998C255.542 496.004 255.098 495.982 254.652 495.933H254.952C251.163 495.511 247.405 493.059 242.888 488.308C202.941 446.296 163.938 397.814 136.883 346.488C115.16 305.277 108.509 280.249 111.792 252.079C115.512 220.172 129.364 193.453 154.015 170.636C179.535 147.016 211.42 133.798 248.037 131.66C250.622 131.509 253.211 131.427 255.797 131.41V131.406C255.865 131.406 255.932 131.407 256 131.408C256.067 131.407 256.134 131.406 256.202 131.406V131.41ZM256 155.604C230.625 155.681 209.151 162.207 188.596 176.081C180.986 181.217 168.573 193.373 163 201.147C132.655 243.472 138.174 296.888 176.593 332.744C196.045 350.896 219.567 360.994 247.756 363.291C250.771 363.537 253.83 363.732 256 363.831C258.169 363.732 261.227 363.537 264.243 363.291C292.432 360.994 315.954 350.896 335.406 332.744C373.826 296.888 379.344 243.472 349 201.147C343.426 193.373 331.014 181.217 323.404 176.081C302.849 162.207 281.374 155.681 256 155.604ZM255.797 186.098C259.412 186.041 263.029 186.771 266.585 188.298C275.679 192.203 282.625 202.281 286.662 210.45C292.363 221.988 293.318 223.548 297.166 227.616C306.428 237.407 320.065 240.835 329.565 250.316C337.637 258.371 341.777 273.61 337.263 284.448C331.689 297.829 316.519 304.876 301.471 301.075C296.361 299.784 290.122 296.776 280.374 290.902C270.901 285.194 263.505 282.27 256 282.189C248.495 282.27 241.099 285.195 231.626 290.902C221.878 296.776 215.639 299.784 210.529 301.075C195.481 304.876 180.31 297.829 174.736 284.448C170.222 273.61 174.363 258.371 182.435 250.316C191.936 240.835 205.572 237.407 214.834 227.616C218.682 223.548 219.637 221.988 225.338 210.45C229.375 202.281 236.321 192.203 245.414 188.298C248.837 186.828 252.318 186.1 255.797 186.098ZM97.1841 104.086C102.729 87.4584 115.598 78.3718 129.015 81.6098C150.425 86.7773 166.795 113.888 161.963 135.375C158.953 148.764 148.256 159.048 135.209 161.096C102.56 166.221 88.4676 130.228 97.1841 104.086ZM382.984 81.6098C396.402 78.3713 409.271 87.4582 414.816 104.086C423.533 130.228 409.439 166.222 376.79 161.096C363.743 159.048 353.046 148.764 350.036 135.375C345.204 113.888 361.575 86.7776 382.984 81.6098ZM175.995 32.8979C182.738 19.9023 198.679 11.2934 212.563 18.7836C231.537 29.0202 244.076 56.7259 238.956 77.0981C235.693 90.0745 226.704 99.4803 213.703 103.522C208.201 105.232 197.421 104.88 191.667 102.802C164.128 92.8581 164.78 54.5107 175.995 32.8979ZM299.437 18.7836C313.321 11.2931 329.262 19.9023 336.005 32.8979C347.219 54.5107 347.872 92.8583 320.334 102.802C314.579 104.88 303.798 105.232 298.296 103.522C285.295 99.4802 276.307 90.0744 273.044 77.0981C267.924 56.7258 280.463 29.0201 299.437 18.7836Z" fill="#E28602"/>
</svg>
