<svg width="563" height="837" viewBox="0 0 563 837" fill="none" xmlns="http://www.w3.org/2000/svg">
<path d="M281.705 201.072C286.217 201.102 290.73 201.247 295.239 201.51C359.091 205.234 414.693 228.263 459.194 269.416C502.181 309.169 526.335 355.719 532.821 411.308C538.547 460.388 526.949 503.991 489.068 575.792C441.889 665.215 373.876 749.682 304.216 822.879C296.354 831.14 289.812 835.417 283.217 836.164H283.736C282.937 836.252 282.144 836.291 281.353 836.281C280.562 836.291 279.768 836.252 278.969 836.164H279.489C272.894 835.417 266.351 831.14 258.489 822.879C188.829 749.683 120.816 665.215 73.6371 575.792C35.7563 503.991 24.1579 460.388 29.8842 411.308C36.37 355.719 60.5244 309.169 103.511 269.416C148.012 228.263 203.614 205.234 267.466 201.51C271.975 201.247 276.489 201.102 280.999 201.072V201.067C281.117 201.068 281.235 201.068 281.352 201.069C281.47 201.068 281.588 201.068 281.705 201.067V201.072ZM281.352 243.225C237.104 243.36 199.658 254.73 163.814 278.902C150.544 287.851 128.898 309.029 119.179 322.573C66.2647 396.314 75.8865 489.377 142.883 551.846C176.803 583.474 217.822 601.065 266.979 605.068C272.237 605.496 277.569 605.838 281.352 606.011C285.135 605.838 290.468 605.496 295.726 605.068C344.883 601.065 385.902 583.474 419.822 551.846C486.819 489.377 496.44 396.314 443.526 322.573C433.807 309.029 412.161 287.851 398.891 278.902C363.047 254.73 325.6 243.359 281.352 243.225ZM281.352 296.347C287.538 296.301 293.726 297.576 299.812 300.187C315.669 306.99 327.781 324.549 334.82 338.78C344.762 358.883 346.427 361.6 353.136 368.687C369.288 385.747 393.068 391.72 409.635 408.238C423.711 422.272 430.932 448.821 423.06 467.704C413.34 491.017 386.886 503.294 360.645 496.672C351.734 494.422 340.854 489.182 323.855 478.948C307.337 469.004 294.44 463.905 281.352 463.764C268.265 463.906 255.368 469.005 238.85 478.948C221.85 489.182 210.971 494.423 202.06 496.672C175.819 503.294 149.365 491.017 139.645 467.704C131.773 448.821 138.994 422.272 153.07 408.238C169.637 391.72 193.417 385.748 209.569 368.687C216.278 361.6 217.942 358.883 227.885 338.78C234.924 324.549 247.036 306.99 262.893 300.187C268.979 297.576 275.166 296.301 281.352 296.347ZM4.40959 153.47C14.078 124.5 36.5196 108.667 59.9174 114.309C97.2512 123.313 125.797 170.546 117.372 207.982C112.123 231.309 93.4699 249.225 70.7192 252.794C13.7847 261.723 -10.7902 199.016 4.40959 153.47ZM502.788 114.309C526.185 108.667 548.627 124.5 558.295 153.47C573.495 199.016 548.921 261.723 491.986 252.794C469.235 249.225 450.582 231.309 445.332 207.982C436.908 170.546 465.454 123.313 502.788 114.309ZM141.839 29.4412C153.598 6.79945 181.396 -8.19986 205.608 4.85036C238.696 22.6852 260.561 70.9565 251.63 106.45C245.942 129.058 230.268 145.445 207.595 152.486C198.001 155.465 179.203 154.852 169.168 151.232C121.147 133.908 122.284 67.0961 141.839 29.4412ZM357.097 4.85036C381.309 -8.20024 409.107 6.79949 420.866 29.4412C440.421 67.0962 441.559 133.908 393.537 151.232C383.502 154.852 364.704 155.465 355.11 152.486C332.438 145.444 316.763 129.058 311.075 106.45C302.144 70.9565 324.01 22.6852 357.097 4.85036Z" fill="#E28602"/>
</svg>
